/* XPM */
static char *_0f2cc6de89e4048ab7a9594f07aedb02IkAotuyMQs78LVg[] = {
/* columns rows colors chars-per-pixel */
"32 32 2 1 ",
"  c None",
". c #FE2525",
/* pixels */
"    ....                ....    ",
"    ....                ....    ",
"  ..........        ..........  ",
"  ..........        ..........  ",
"..............    ..............",
"..............    ..............",
"..............    ..............",
"..............    ..............",
"................................",
"................................",
"................................",
"................................",
"................................",
"................................",
"................................",
"................................",
"................................",
"................................",
"................................",
"................................",
"    ........................    ",
"    ........................    ",
"    ........................    ",
"    ........................    ",
"        ................        ",
"        ................        ",
"        ................        ",
"        ................        ",
"            ........            ",
"            ........            ",
"            ........            ",
"            ........            "
};
