/* XPM */
static char *_4abf6ba437845d09632fe22d220ea96DC0k61nSprKEJ0wR[] = {
/* columns rows colors chars-per-pixel */
"32 32 5 1 ",
"  c black",
". c #1B1548",
"X c #1B215A",
"o c #362F79",
"O c #FFED00",
/* pixels */
"X.XXX.XXXXXXXXXXXXXXXXXXXXXXXXXX",
"XXXoXXXXX.XX.XXXXXoXXXX.XXXXXXoX",
"XXXXXXXXXXXXXXXX.XXXXXXXXX.XXXXX",
"XX.X.X.XXXXXXXXXXXXXX.XXXXXXXX.X",
"XX.XX.XXXX.XXXXX.XXX.X.XX.XXXX.X",
"XXXXXXXXXXXXXXX XXXXX.XXXXXXXXXX",
"XXXXXXXXX.XX.XX XXXXXXXXXXX.XXXX",
"XoX.XXX.XXXXXX O .XXX.X.XXXXXoXX",
"XXXXXXXXXXXXXX O XXXXXXXX.XXXX.X",
"XXXXXXXXXXX.. OO XXX.XXXXXX.XXXX",
".XX..XXXXXXXX OOO XXXXXX.XXXXXXX",
"XXXXXXXXXXX.X OOO .XXXoXXX.XXXXX",
"XXXXXX.XoXXX. OOO X.XXXXX.X.XXXX",
"XXXXXXXX.X   OOOOO   XXXXoXXXXXX",
"X.XXX.XX  OOOOOOOOOOO   oXXXX.XX",
"XXXoXX  OOOOOOOOOOOOOOOO  XXXXXX",
"XXXXXXXX    OOOOOOOOO   XX.XXX.X",
"XX.XX.XXXXXX  OOOOO  XXXXXXXXXXX",
"XXXX.X.XXX.XXX OOO .X.XX.XXXXX.X",
"XX.XX.XXXXXXXX OOO X.XXXXX.XXXXX",
"XXXXXXXXXX.X.XX OO XXXXX.XXXXXXX",
"oXXXXXX.XXXXXXX O XXX.XXXXXXoXXX",
"XX.XXXXXXXXXXXX O XXXXXXXXXXXXXX",
"XXXXXXXXXXXXXXXX XXXXXXXXX.XXXXX",
"XXXXXXXXX.XX.XXX ..XXXXXX.X.XXXX",
".XX.X.XXoXX.X.XXXXXX.oXXXX.XXXXX",
"XXXXXXXXXXXXXXXXXXXXXXXXXoXXXXXX",
"X.XXXXXX.XXoXXX.XXXXXX..oXXXX.XX",
"XXXXX.XXXXoXXXXXXXX.XXXXXXXXXXXX",
"XXXoXXXXX.XX.XXXXoXXXXX.XX.XXXXo",
"XXXXXX.XXXXXXXXXXXXX.XXXXXXXXXXX",
"XX.XX.X.XXXXXXXX.XX.X.XXXXXXXX.X"
};
