/* XPM */
static char *_650afc1a20843f4d692593dcd1880c9mzRjCtcPc9xuNSsd[] = {
/* columns rows colors chars-per-pixel */
"48 48 8 1 ",
"  c None",
". c #010100",
"X c #3D110E",
"o c #FDC613",
"O c #FBC910",
"+ c #E13BF3",
"@ c #E13BF5",
"# c #68A3DD",
/* pixels */
"            XXXXXXXXXXXXXXXXXXXXXXXX            ",
"            XXXXXXXXXXXXXXXXXXXXXXXX            ",
"            XXXXXXXXXXXXXXXXXXXXXXXX            ",
"         XXXXXXXXXXXXXXXXXXXXXXXXXXXXXXXXX      ",
"         XXXXXXXXXXXXXXXXXXXXXXXXXXXXXXXXX      ",
"         XXXXXXXXXXXXXXXXXXXXXXXXXXXXXXXXX      ",
"         XXXXXXXXXXXXXXXXXXXXXXXXXXXXXXXXX      ",
"         XXXXXXXXXXXXXXXXXXXXXXXXXXXXXXXXX      ",
"         XXXXXXXXXXXXXXXXXXXXXXXXXXXXXXXXX      ",
"      XXXXXXXXXXXXXXXXXXXXXXXXXXXXXXXXXXXXXXX   ",
"      XXXXXXXXXXXXXXXXXXXXXXXXXXXXXXXXXXXXXXX   ",
"      XXXXXXXXXXXXXXXXXXXXXXXXXXXXXXXXXXXXXXX   ",
"      XXXXXXXXXOOOXXXXXXOOOXXXXXXXXXXXXXXXXXX   ",
"      XXXXXXXXXOOOXXXXXXOOOXXXXXXXXXXXXXXXXXX   ",
"      XXXXXXXXXOOOXXXXXXOOOXXXXXXXXXXXXXXXXXX   ",
"      XXXXXXOOOOOOOOOXXXOOOOOOXXXXXXXXXXXXXXX   ",
"      XXXXXXOOOOOOOOOXXXOOOOOOXXXXXXXXXXXXXXX   ",
"      XXXXXXOOOOOOOOOXXXOOOOOOXXXXXXXXXXXXXXX   ",
"      XXXXXXOOO......OOOOOO......XXXOOOXXXXXX   ",
"      XXXXXXOOO......OOOOOO......XXXOOOXXXXXX   ",
"      XXXXXXOOO......OOOOOO......XXXOOOXXXXXX   ",
"      XXXXXXOOOOOOOOOOOOOOOOOOOOOOOOXXXXXXXXX   ",
"      XXXXXXOOOOOOOOOOOOOOOOOOOOOOOOXXXXXXXXX   ",
"      XXXXXXOOOOOOOOOOOOOOOOOOOOOOOOXXXXXXXXX   ",
"         XXXXXXOOOOOO......OOOOOOXXX   XXX      ",
"         XXXXXXOOOOOO......OOOOOOXXX   XXX      ",
"         XXXXXXOOOOOO......OOOOOOXXX   XXX      ",
"            XXXXXX++++++++++++XXXXXX            ",
"            XXXXXX++++++++++++XXXXXX            ",
"            XXXXXX++++++++++++XXXXXX            ",
"         XXXXXX##################XXXXXX         ",
"         XXXXXX##################XXXXXX         ",
"         XXXXXX##################XXXXXX         ",
"      XXXOOOOOO+++@@@++++++++++++oooOOOXXX      ",
"      XXXOOOOOO+++@@@++++++++++++oooOOOXXX      ",
"      XXXOOOOOO+++@@@++++++++++++oooOOOXXX      ",
"      XXXOOOOOO##################OOOOOOXXX      ",
"      XXXOOOOOO##################OOOOOOXXX      ",
"      XXXOOOOOO##################OOOOOOXXX      ",
"         XXXXXX######XXXXXX######XXXXXX         ",
"         XXXXXX######XXXXXX######XXXXXX         ",
"         XXXXXX######XXXXXX######XXXXXX         ",
"            XXXXXXXXX      XXXXXXXXX            ",
"            XXXXXXXXX      XXXXXXXXX            ",
"            XXXXXXXXX      XXXXXXXXX            ",
"         XXXXXXXXX            XXXXXXXXX         ",
"         XXXXXXXXX            XXXXXXXXX         ",
"         XXXXXXXXX            XXXXXXXXX         "
};
