/* XPM */
static char *_8e1b4b7c4ae4422e8f7983020797298IifWhN6ETXMLOghy[] = {
/* columns rows colors chars-per-pixel */
"32 32 10 1 ",
"  c #010100",
". c #3D110E",
"X c #1B1548",
"o c #1B215A",
"O c #362F79",
"+ c #FDC613",
"@ c #FBC910",
"# c #E13BF3",
"$ c #E13BF5",
"% c #68A3DD",
/* pixels */
"oXoooXoo................oooooooo",
"oooOoooo................ooooooOo",
"oooooo......................oooo",
"ooXoXo......................ooXo",
"ooXooX......................ooXo",
"oooooo......................oooo",
"oooo..........................oo",
"oOoX..........................oo",
"oooo......@@....@@............Xo",
"oooo......@@....@@............oo",
"XooX....@@@@@@..@@@@..........oo",
"oooo....@@@@@@..@@@@..........oo",
"oooo....@@    @@@@    ..@@....oo",
"oooo....@@    @@@@    ..@@....oo",
"oXoo....@@@@@@@@@@@@@@@@......oo",
"oooO....@@@@@@@@@@@@@@@@......oo",
"oooooo....@@@@    @@@@..oo..ooXo",
"ooXooX....@@@@    @@@@..oo..oooo",
"ooooXoXo....########....XoooooXo",
"ooXooXoo....########....ooXooooo",
"oooooo....%%%%%%%%%%%%....oooooo",
"Oooooo....%%%%%%%%%%%%....ooOooo",
"ooXo..@@@@##$$########++@@..oooo",
"oooo..@@@@##$$########++@@..oooo",
"oooo..@@@@%%%%%%%%%%%%@@@@..oooo",
"XooX..@@@@%%%%%%%%%%%%@@@@..oooo",
"oooooo....%%%%....%%%%....oooooo",
"oXoooo....%%%%....%%%%....oooXoo",
"oooooXoo......oooo......oooooooo",
"oooOoooo......oooO......ooXooooO",
"oooooo......oooooooo......oooooo",
"ooXooX......ooooXooX......ooooXo"
};
