/* XPM */
static char *_b3d9f2ac1d04eaac075408fbd81bae1BVn6Zy37sECR4NHm[] = {
/* columns rows colors chars-per-pixel */
"40 40 3 1 ",
"  c None",
". c black",
"X c #FFED00",
/* pixels */
"                  ..                    ",
"                  ..                    ",
"                  ..                    ",
"                  ..                    ",
"                ..XX..                  ",
"                ..XX..                  ",
"                ..XX..                  ",
"                ..XX..                  ",
"              ..XXXX..                  ",
"              ..XXXX..                  ",
"              ..XXXXXX..                ",
"              ..XXXXXX..                ",
"              ..XXXXXX..                ",
"              ..XXXXXX..                ",
"              ..XXXXXX..                ",
"              ..XXXXXX..                ",
"        ......XXXXXXXXXX......          ",
"        ......XXXXXXXXXX......          ",
"    ....XXXXXXXXXXXXXXXXXXXXXX......    ",
"    ....XXXXXXXXXXXXXXXXXXXXXX......    ",
"....XXXXXXXXXXXXXXXXXXXXXXXXXXXXXXXX....",
"....XXXXXXXXXXXXXXXXXXXXXXXXXXXXXXXX....",
"    ........XXXXXXXXXXXXXXXXXX......    ",
"    ........XXXXXXXXXXXXXXXXXX......    ",
"            ....XXXXXXXXXX....          ",
"            ....XXXXXXXXXX....          ",
"                ..XXXXXX..              ",
"                ..XXXXXX..              ",
"                ..XXXXXX..              ",
"                ..XXXXXX..              ",
"                  ..XXXX..              ",
"                  ..XXXX..              ",
"                  ..XX..                ",
"                  ..XX..                ",
"                  ..XX..                ",
"                  ..XX..                ",
"                    ..                  ",
"                    ..                  ",
"                    ..                  ",
"                    ..                  "
};
