/* XPM */
static char *f0f159558ed44f95eb7d355aacf5d81cFOvA5sDipMsQGzhh[] = {
/* columns rows colors chars-per-pixel */
"32 32 5 1 ",
"  c black",
". c #090411",
"X c #170D2B",
"o c #1B1548",
"O c #1B215A",
/* pixels */
".XXooooOOOOOOOOooooooOOOOOOOoXX ",
".ooOOOOOOOOOOOOOOOOOOOOOOOOOOooX",
"XooOOOOOOOOOOOOOOOOOOOOOOOOOOoo ",
".ooOOOOOOOOOOOOOOOOOOOOOOOOOOoo ",
"XooOOOOOOooooOOOOOOOOOOoooOOOoo ",
"XooOOOOooOOOOoooOOOOOooOOOooOooX",
" XXooooOOOOOOOOooooooOOOOOOOoXX ",
"XooOOOOOOOOOOOOOOOOOOOOOOOOOOooX",
".ooOOOOOOOOOOOOOOOOOOOOOOOOOOOOX",
"XooOOOOOOooooOOOOOOOOOOoooOOOooX",
"XooOOOOooOOOOoooOOOOOooOOOooOooX",
" XXooooOOOOOOOOooooooOOOOOOOoXX ",
"XooOOOOOOOOOOOOOOOOOOOOOOOOOOooX",
".ooOOOOOOOOOOOOOOOOOOOOOOOOOOooX",
".ooOOOOOOooooOOOOOOOOOOoooOOOoo ",
"XooOOOOooOOOOoooOOOOOooOOOooOooX",
" XXooooOOOOOOOOooooooOOOOOOOoXX ",
"XooOOOOOOOOOOOOOOOOOOOOOOOOOOooX",
"XooOOOOOOOOOOOOOOOOOOOOOOOOOOOo ",
"XooOOOOOOooooOOOOOOOOOOoooOOOOoX",
"XooOOOOooOOOOoooOOOOOooOOOooOOoX",
" XXooooOOOOOOOOooooooOOOOOOOoXX ",
"XoOOOOOOOOOOOOOOOOOOOOOOOOOOOoo ",
".oOOOOOOOOOOOOOOOOOOOOOOOOOOOoo ",
".oOOOOOOOooooOOOOOOOOOOoooOOOooX",
".oOOOOOooOOOOoooOOOOOooOOOooOooX",
"XXXooooOOOOOOOOooooooOOOOOOOoXX ",
"XooOOOOOOOOOOOOOOOOOOOOOOOOOOooX",
".ooOOOOOOOOOOOOOOOOOOOOOOOOOOoo ",
".ooOOOOOOOOOOOOOOOOOOOOOOOOOOooX",
"XooOOOOOOooooOOOOOOOOOOoooOOOoo ",
"XooOOOOooOOOOoooOOOOOooOOOooOoo "
};
