/* XPM */
static char *db3f91b723ec489fd9d3926825af20adciFJ6BnZf24PFE95[] = {
/* columns rows colors chars-per-pixel */
"32 32 6 1 ",
"  c black",
". c #1B1548",
"X c #1B215A",
"o c #362F79",
"O c #808080",
"+ c #C0C0C0",
/* pixels */
"X.XXX.XXXXXXXXXXXXXXXXXXXXXXXXXX",
"XXXoXXXXX.XX.XXXXXoXXXX.XXXXXXoX",
"XXXXXXXXXXXXXXXX.XXXXXXXXX.XXXXX",
"XX.X.X.XXXXXXXXXXXXXX.XXXXXXXX.X",
"XX.XX.XXXX.XXXXX.XXX.X.XX.XXXX.X",
"XXXXXXXXXXXXXXXXXXXXX.XXXXXXXXXX",
"XXXXXXXXX.XX     XXXXXXXXXX.XXXX",
"XoX.XXX.XXX O++++ XXX.X.XXXXXoXX",
"XXXXXXXXXXX ++++++ XXXXXX.XXXX.X",
"XXXXXXXXXX O+++++++ .XXXXXX.XXXX",
".XX..XXXX O++++++++O XXX.XXXXXXX",
"XXXXXXXXX ++++++++OO XoXXX.XXXXX",
"XXXXXX.Xo +++++++OOO XXXX.X.XXXX",
"XXXXXXXX +++++++OOOOO   XoXXXXXX",
"X.XXX.X  +++OOOOOOOOO+++ XXXX.XX",
"XXXoXXX +++++OOOOOO+++++O XXXXXX",
"XXXXXXX +++++++++++++++OO .XXX.X",
"XX.XX.X O+++++++++++++OOO XXXXXX",
"XXXX.X. +O+++++++++++OOOO XXXX.X",
"XX.XX.X +O+O+O+O+OOOOOOOO .XXXXX",
"XXXXXXX +O+O+O+O+OOOOOOOO XXXXXX",
"oXXXXXX. O+O+O+O+OOOOOOO XXXoXXX",
"XX.XXXXXX  O+O+O+OOOOO  XXXXXXXX",
"XXXXXXXXXXX           XXXX.XXXXX",
"XXXXXXXXX.XX.XXXX..XXXXXX.X.XXXX",
".XX.X.XXoXX.X.XXXXXX.oXXXX.XXXXX",
"XXXXXXXXXXXXXXXXXXXXXXXXXoXXXXXX",
"X.XXXXXX.XXoXXX.XXXXXX..oXXXX.XX",
"XXXXX.XXXXoXXXXXXXX.XXXXXXXXXXXX",
"XXXoXXXXX.XX.XXXXoXXXXX.XX.XXXXo",
"XXXXXX.XXXXXXXXXXXXX.XXXXXXXXXXX",
"XX.XX.X.XXXXXXXX.XX.X.XXXXXXXX.X"
};
