/* XPM */
static char *_3d8b3635a4d4d53a4045b21d557e0a6XjIeGhIuazsBPIOp[] = {
/* columns rows colors chars-per-pixel */
"32 32 3 1 ",
"  c #1B1548",
". c #1B215A",
"X c #362F79",
/* pixels */
". ... ..........................",
"...X..... .. .....X.... ......X.",
"................ ......... .....",
".. . . .............. ........ .",
".. .. .... ..... ... . .. .... .",
"..................... ..........",
"......... .. .............. ....",
".X. ... .......X. ... . .....X..",
"......................... .... .",
"...........  .. .... ...... ....",
" ..  ................... .......",
"........... .....  ...X... .....",
"...... .X... ...... ..... . ....",
"........ .. X.. .........X......",
". ... ....X........ .. .X.... ..",
"...X..... .......X..... ........",
"............. .. ......... ... .",
".. .. .............. ...........",
".... . ... ..... .. . .. ..... .",
".. .. .............. ..... .....",
".......... . ........... .......",
"X...... ......... ... ......X...",
".. .............................",
".......................... .....",
"......... .. ....  ...... . ....",
" .. . ..X.. . ...... X.... .....",
".........................X......",
". ...... ..X... ......  X.... ..",
"..... ....X........ ............",
"...X..... .. ....X..... .. ....X",
"...... ............. ...........",
".. .. . ........ .. . ........ ."
};
