/* XPM */
static char *_73f50ee87ce45009c07c4186bb757ae9mzzGcRoje3ShzjP[] = {
/* columns rows colors chars-per-pixel */
"32 32 8 1 ",
"  c #0B0003",
". c #3D110D",
"X c #1B1548",
"o c #1B215A",
"O c #362F79",
"+ c #FFC90E",
"@ c #E607F8",
"# c #67A5E2",
/* pixels */
"oXoooXoooooooooooooooooooooooooo",
"oooOoooooXooXoooooOooooXooooooOo",
"ooooooooooo.........ooooooXooooo",
"ooXoXoXooo...........XooooooooXo",
"ooXooXooo.............XooXooooXo",
"oooooooo...............ooooooooo",
"oooooooo................oooXoooo",
"oOoXooo....+....+.......oooooOoo",
"ooooooo...+++..++..+....oXooooXo",
"ooooooo...+++++++++++....ooXoooo",
"XooXXo....+++++++++++.+..ooooooo",
"oooooo....+  ++++  ++++..oXooooo",
"oooooo...+++++++++++++...XoXoooo",
"oooooo...+++++  +++++....Ooooooo",
"oXoooX....+++++++++......ooooXoo",
"oooOoo......++++++.......ooooooo",
"ooooooo.o......++.....o.ooXoooXo",
"ooXooXoooooooo.++.ooXooooooooooo",
"ooooXoXoooXoo.......oXooXoooooXo",
"ooXooXoooo...#....#...ooooXooooo",
"ooooooooo.#.########.#.oXooooooo",
"OooooooX.#.@@@@@@@@@..#.ooooOooo",
"ooXooooo.#.##########.#.oooooooo",
"oooooooo...@@@@@@@@@@...ooXooooo",
"oooooooo.+.##########.+.oXoXoooo",
"XooXoXoo...##########...ooXooooo",
"oooooooooo.###...####.oooOoooooo",
"oXooooooXo.###.X.####.XXOooooXoo",
"oooooXoooo.....o......oooooooooo",
"oooOoooooXoo...o....oooXooXooooO",
"ooooooXoooo....o.....ooooooooooo",
"ooXooXoXooooooooXooXoXooooooooXo"
};
