/* XPM */
static char *_4cd28bbc8784f86ad090f4c3ce51b2dZpMShoWFq1JlGNQH[] = {
/* columns rows colors chars-per-pixel */
"32 32 8 1 ",
"  c #000200",
". c #461818",
"X c #1B1548",
"o c #1B215A",
"O c #362F79",
"+ c #FFD504",
"@ c #FB00FF",
"# c #74ABFF",
/* pixels */
"oXoooXoooooooooooooooooooooooooo",
"oooOoooooXooXoooooOooooXooooooOo",
"oooooooooooo.........oooooXooooo",
"ooXoXoXooo............ooooooooXo",
"ooXooXooo..............ooXooooXo",
"oooooooo................oooooooo",
"oooooooo................oooXoooo",
"oOoXoooX...+.+...........ooooOoo",
"ooooooooo..+.++..........XooooXo",
"ooooooooo.+++++..........ooXoooo",
"XooXXoooo.+++++..++......ooooooo",
"ooooooooo.+  ++.+++......oXooooo",
"ooooooXo.++++++.++.......XoXoooo",
"oooooooo.++++++++........Ooooooo",
"oXoooXoo.  +++++........OooooXoo",
"oooOooooo.++++++......o.oooooooo",
"oooooooooo.....++..o.oooooXoooXo",
"ooXooXoooooooo.++.ooXooooooooooo",
"ooooXoXoooXooo....oXoXooXoooooXo",
"ooXooXooooooo...#..oXoooooXooooo",
"ooooooooooXo.####.#.ooooXooooooo",
"OooooooXoooo.@@.#.@.oXooooooOooo",
"ooXoooooooo.###.#.#.oooooooooooo",
"ooooooooooo.@@@...@.ooooooXooooo",
"oooooooooXo.##.++.#.oooooXoXoooo",
"XooXoXooOoo.##.++.#.XOooooXooooo",
"oooooooooooo.##..##.oooooOoooooo",
"oXooooooXooOo.####.oooXXOooooXoo",
"oooooXooooOoo......Xoooooooooooo",
"oooOoooooXooXo....oooooXooXooooO",
"ooooooXoooooo.....ooXooooooooooo",
"ooXooXoXooooooooXooXoXooooooooXo"
};
