/* XPM */
static char *_f5305fbb6a24e86fc7830ee38cc1f17zXEqJrK4XNO6BaU7[] = {
/* columns rows colors chars-per-pixel */
"32 32 7 1 ",
"  c #451717",
". c #1B1548",
"X c #1B215A",
"o c #362F79",
"O c #FDD015",
"+ c #FB04FF",
"@ c #76ABFB",
/* pixels */
"X.XXX.XXXXXXXXXXXXXXXXXXXXXXXXXX",
"XXXoXXXXX.XX.XXXXXoXXXX.XXXXXXoX",
"XXXXXXXXXXXX         XXXXX.XXXXX",
"XX.X.X.XXXX           XXXXXXXX.X",
"XX.XX.XXXX             XX.XXXX.X",
"XXXXXXXXX               XXXXXXXX",
"XXXXXXXX                XXX.XXXX",
"XoX.XXX.                 XXXXoXX",
"XXXXXXXX                 .XXXX.X",
"XXXXXXX                  XX.XXXX",
".XX..XX                   XXXXXX",
"XXXXXXX                   .XXXXX",
"XXXXXX.                   X.XXXX",
"XXXXXXX                   XXXXXX",
"X.XXX.X                   XXX.XX",
"XXXoXXX                   XXXXXX",
"XXXXXXXX X             X X.XXX.X",
"XX.XX.XXXX XXX OO XX.XXXXXXXXXXX",
"XXXX.X.XXX.X       .X.XX.XXXXX.X",
"XX.XX.XXXX   @@@@@@   XXXX.XXXXX",
"XXXXXXXXX @ @@@@@@@@ @ X.XXXXXXX",
"oXXXXXX. @  +++++++++ @ XXXXoXXX",
"XX.XXXXX @ @@@@@@@@@@ @ XXXXXXXX",
"XXXXXXXX   ++++++++++   XX.XXXXX",
"XXXXXXXX O @@@@@@@@@@ O X.X.XXXX",
".XX.X.XX   @@@@@@@@@@   XX.XXXXX",
"XXXXXXXXXX @@@@   @@@ XXXoXXXXXX",
"X.XXXXXX.X @@@@ X @@@ ..oXXXX.XX",
"XXXXX.XXXX      X     XXXXXXXXXX",
"XXXoXXXXX.XX    X   XXX.XX.XXXXo",
"XXXXXX.XXXX     X     XXXXXXXXXX",
"XX.XX.X.XXXXXXXX.XX.X.XXXXXXXX.X"
};
