/* XPM */
static char *_81ceacbd55a47aea94d1470815994abHnRqBKMfQSkRUKQo[] = {
/* columns rows colors chars-per-pixel */
"32 32 4 1 ",
"  c #1B1548",
". c #1B215A",
"X c #362F79",
"o c #FE2525",
/* pixels */
". ... ..........................",
"...X..... .. .....X.... ......X.",
"................ ......... .....",
".. . . .............. ........ .",
".. .. .... ..... ... . .. .... .",
"..................... ..........",
"......... .. .............. ....",
".X. ... .......X. ... . .....X..",
"..........oo........oo... .... .",
".........ooooo. ..ooooo.... ....",
" ..  ...ooooooo..ooooooo .......",
"........ooooooo..ooooooo.. .....",
"...... .oooooooooooooooo. . ....",
"........oooooooooooooooo.X......",
". ... ..ooooooooooooooooX.... ..",
"...X....oooooooooooooooo........",
"........oooooooooooooooo.. ... .",
".. .. ..oooooooooooooooo........",
".... . ...oooooooooooo.. ..... .",
".. .. ....oooooooooooo.... .....",
".......... .oooooooo.... .......",
"X...... ....oooooooo. ......X...",
".. ...........oooo..............",
"..............oooo........ .....",
"......... .. ....  ...... . ....",
" .. . ..X.. . ...... X.... .....",
".........................X......",
". ...... ..X... ......  X.... ..",
"..... ....X........ ............",
"...X..... .. ....X..... .. ....X",
"...... ............. ...........",
".. .. . ........ .. . ........ ."
};
