/* XPM */
static char *_4c0a77938d24caed4dabfcf9d4514c6USLCJkMF29gPIadj[] = {
/* columns rows colors chars-per-pixel */
"32 32 8 1 ",
"  c #000200",
". c #461818",
"X c #1B1548",
"o c #1B215A",
"O c #362F79",
"+ c #FFD504",
"@ c #FB00FF",
"# c #74ABFF",
/* pixels */
"oXoooXoooooooooooooooooooooooooo",
"oooOoooooXooXoooooOooooXooooooOo",
"ooooooooooo.........ooooooXooooo",
"ooXoXoXooo............ooooooooXo",
"ooXooXooo..............ooXooooXo",
"oooooooo................oooooooo",
"oooooooo................oooXoooo",
"oOoXooo...........+.+...oooooOoo",
"ooooooo..........++.+..ooXooooXo",
"ooooooo..........+++++.ooooXoooo",
"XooXXoo......++..+++++.oXooooooo",
"ooooooo......+++.++  +.oooXooooo",
"ooooooX.......++.++++++.oXoXoooo",
"ooooooo........++++++++.oOoooooo",
"oXoooXoo........+++++  .OooooXoo",
"oooOoooo.X......++++++.Xoooooooo",
"ooooooooooo.o..++.....ooooXoooXo",
"ooXooXoooooooo.++.ooXooooooooooo",
"ooooXoXoooXooo....oXoXooXoooooXo",
"ooXooXooooooo..#...oXoooooXooooo",
"ooooooooooXo.#.####.ooooXooooooo",
"OooooooXoooo.@.#.@@.oXooooooOooo",
"ooXooooooooo.#.#.###.ooooooooooo",
"oooooooooooo.@...@@@.oooooXooooo",
"oooooooooXoo.#.++.##.ooooXoXoooo",
"XooXoXooOooX.#.++.##.OooooXooooo",
"oooooooooooo.##..##.oooooOoooooo",
"oXooooooXooOo.####.oooXXOooooXoo",
"oooooXooooOoo......Xoooooooooooo",
"oooOoooooXooXo....oooooXooXooooO",
"ooooooXooooooo.....oXooooooooooo",
"ooXooXoXooooooooXooXoXooooooooXo"
};
